<svg id="Layer_1" data-name="Layer 1" xmlns="http://www.w3.org/2000/svg" xmlns:xlink="http://www.w3.org/1999/xlink" viewBox="0 0 558.94 218.17"><defs><style>.cls-1{fill:#fff;}.cls-2{fill:#f7f7f7;}.cls-3{fill:#28a745;}.cls-4,.cls-6{fill:#007bff;}.cls-5{mask:url(#mask);}.cls-6{font-size:131.32px;font-family:Univers Condensed;font-weight:700;}.cls-7{mask:url(#mask-2);}.cls-8{fill:none;}</style><mask id="mask" x="-25.04" y="74.44" width="534.2" height="163.48" maskUnits="userSpaceOnUse"><g transform="translate(-36.25 -302.29)"><path class="cls-1" d="M221,425.33c-8.92.09-26.72,5.94-22.49,18.09,3.5,10,18,12.55,26.66,8.93,4.4-1.83,5.66-6.25,2.65-10-7.91-9.92-21.25-13.89-33.41-10.73-4.24,1.1-6,7-2.65,10a31.58,31.58,0,0,0,19.18,8.52c6,0.43,13.58-1.48,15.55-8,4.36-14.54-22.18-19.09-30.32-12.32-6,5-1.05,12.09,4.67,14.29A27.23,27.23,0,0,0,222,443.4c6-2.89,10.53-10,6.51-16.35-3.87-6.15-12.19-8.62-18.93-9.38s-8.07,10.21-1.6,11.79l6.93,1.68,1.6-11.79a226.82,226.82,0,0,1-29.53-2.61c-7.51-1.18-10.85,10.2-3.19,11.57l21.62,3.87,1.6-11.79-31.78.23c-6.61,0-8.35,10.26-1.6,11.79l34,7.7,1.6-11.79a295.5,295.5,0,0,1-39.89-.21v12A166.65,166.65,0,0,1,207.2,447l1.6-11.79A144,144,0,0,1,162,428l-1.6,11.79,30.93,3.41c7.68,0.85,7.58-11.12,0-12a340,340,0,0,1-40.38-7.27l-1.6,11.79,30.73,3.52c6.65,0.76,8.29-10.79,1.6-11.79A273.71,273.71,0,0,1,147.13,420l-1.6,11.79a336.12,336.12,0,0,1,34.85,4.62l1.6-11.79a101.18,101.18,0,0,1-26.14-4.87l-1.6,11.79a215.11,215.11,0,0,0,23,1.72c6.09,0.13,8-8.15,3-11.18l-6-3.65-3,11.18a26.08,26.08,0,0,1,11.07.71l1.6-11.79a157.1,157.1,0,0,1-16.74-3.11L164.07,427l13.32,3,1.6-11.79a45.53,45.53,0,0,1-11.57-1.13l-3.19,11.57,19,3.86,1.6-11.79a115.61,115.61,0,0,1-20.34-1.82l-3.19,11.57a92,92,0,0,1,19.83,5.69l1.43-11a58.56,58.56,0,0,1-26.4-.55L153,436.26l31,7,1.6-11.79A117.25,117.25,0,0,1,150.79,427L147.6,438.6l47.13,9.08,1.6-11.79-41.25-1.16c-6.76-.19-8.15,10.09-1.6,11.79L194.15,457l1.6-11.79a330,330,0,0,1-57.63-7.86l-3.19,11.57c19.25,3.28,38.5,6.6,57.5,11.16l1.6-11.79a222.23,222.23,0,0,1-42.86-5.76l-1.6,11.79,79.13,10.35v-12a110.49,110.49,0,0,1-36.41-9.18l-3,11.18a402.07,402.07,0,0,1,53.48,5.74l1.6-11.79a235.63,235.63,0,0,1-47.46-11.24l-1.6,11.79a425.12,425.12,0,0,1,61.32,8.74l1.6-11.79a100.32,100.32,0,0,1-39.13-8.51l-3,11.18A337.71,337.71,0,0,1,262,450.1c6.68,0.64,8.25-10.57,1.6-11.79a337.39,337.39,0,0,1-40.77-10.12v11.57a90.1,90.1,0,0,1,39.81,3.07l1.6-11.79a93.67,93.67,0,0,1-30-9.21l-3,11.18a92.82,92.82,0,0,1,29.62,3.56L264,425l-43.08-7.08c-7.45-1.23-10.83,9.65-3.19,11.57L252,438.12l3.19-11.57a136.75,136.75,0,0,1-27.33-6.66l-1.6,11.79a113.22,113.22,0,0,1,34.84,1.12l1.6-11.79a7.84,7.84,0,0,1-3.75-1.48l-3,11.18a167.38,167.38,0,0,1,33.46.24c6.69,0.72,8.2-10.47,1.6-11.79L259.75,413l-3.19,11.57q23.81,3.65,47.5,8l1.6-11.79a232.29,232.29,0,0,1-31.25-6.1l-1.6,11.79a225.83,225.83,0,0,1,46.65,9.89l1.6-11.79a150.35,150.35,0,0,1-35-3.35c-7.53-1.63-10.61,9.29-3.19,11.57,8,2.45,15.75,5,22.76,9.62V432.06a38.94,38.94,0,0,1-35.83,2.39l-3,11.18A174.88,174.88,0,0,1,297.93,449c7.5,1.5,10.75-9.64,3.19-11.57a272.46,272.46,0,0,1-37.45-12.52l-1.6,11.79a101.58,101.58,0,0,1,35,6.35l1.6-11.79a43.72,43.72,0,0,1-25.62-6l-3,11.18a351.34,351.34,0,0,1,45.58,7.32c7.53,1.72,10.57-9.24,3.19-11.57q-15.15-4.78-29.89-10.7l-1.6,11.79a95.88,95.88,0,0,1,33.18,6.95l1.6-11.79c-8.33,1.06-16.56-.73-23.13-6.14l-2.65,10a75,75,0,0,1,43.92,6l3-11.18c-12.44.94-23.85-3.83-35-8.79l-3,11.18A186.48,186.48,0,0,1,351.4,440l-4.4-5.79v0.91l1.76-4.24c0.7-.83-0.64-0.38-1.41-0.51-1.54-.26-3.14-0.34-4.69-0.55-2.78-.36-5.54-0.81-8.3-1.3-5.44-1-10.82-2.21-16.16-3.63l-1.6,11.79a73.17,73.17,0,0,1,25.34,7.46l1.43-11a53,53,0,0,1-33.23-2.58l-3.19,11.57c11.55,2,23.2,4.15,33.19,10.63l3-11.18A75.76,75.76,0,0,1,301.59,433l-3,11.18a98.77,98.77,0,0,1,43.24,9.92l1.43-11a43,43,0,0,1-29.84-3.55l-3,11.18a114.53,114.53,0,0,1,20.73,2.77q4.83,1.12,9.57,2.63c1.32,0.43,3.75,1.7,5.11,1.77q2.55,1.74,1.74-2.27,1.86-3.42-.42-2.66c-0.94-.62-4.36-0.05-5.43-0.1-1.51-.07-3-0.18-4.51-0.31a85.68,85.68,0,0,1-10-1.54,96.85,96.85,0,0,1-20.8-6.94l-3,11.18a103.17,103.17,0,0,1,39.09,9.26l-1.21-9.42c-2.82,2.29-8,.77-11.16.14-4.94-1-9.85-2.17-14.71-3.5a235.65,235.65,0,0,1-28.57-9.87l-3.19,11.57a236.59,236.59,0,0,1,47.24,11.85l-1.43-11c-4.27,2.26-9.21,1.61-13.79.76-5.9-1.09-11.77-2.47-17.6-3.9-11.59-2.84-23-6.21-34.33-10L262,453a91.18,91.18,0,0,1,43.28,12.73l-1.21-9.42c-1.68,1.48-5.65.06-7.49-.34-4-.87-8-1.84-11.92-2.88-7.61-2-15.12-4.31-22.56-6.86L260.52,458a123.43,123.43,0,0,1,39.15,9.42V457c-4,2.5-8.89,1.41-13.3.56q-8.18-1.57-16.26-3.66a277.19,277.19,0,0,1-31.68-10.29l-1.6,11.79a207,207,0,0,1,37,8.22V452.07c-5.69.88-11.39-.48-16.91-1.78-5.93-1.39-11.84-2.87-17.74-4.39q-17.23-4.45-34.28-9.56l-1.6,11.79a161,161,0,0,1,31.91,7.75l1.6-11.79C200.23,443.4,166.5,426,130,424c-6.63-.37-8.34,10.8-1.6,11.79l6,0.87V425a13.57,13.57,0,0,1-7.58.32l-1.6,11.79,17.23,2.27v-12a218.92,218.92,0,0,1-33.07-5.75l-1.6,11.79a372.31,372.31,0,0,1,38.74,1.18v-12a206.33,206.33,0,0,1-35.37-5l-1.6,11.79,12.88-.33c7.8-.2,7.63-11.4,0-12A170,170,0,0,1,99,413.63l-1.6,11.79a108.3,108.3,0,0,1,31.17,7.1V420.94l-30.73,4.53c-5.87.87-5.57,10.45,0,11.57l31.45,6.33,1.6-11.79a40.59,40.59,0,0,1-21.42-2.95l-1.6,11.79a90.08,90.08,0,0,1,27,5.47l1.6-11.79a78.32,78.32,0,0,1-25.68-2.45c-7.5-2-10.52,9.23-3.19,11.57l15.27,4.87V436.53a23.72,23.72,0,0,1-12.94,1.71l-3.19,11.57,27.92,4.07,3.19-11.57-26.52-3.76c-7.42-1.05-10.92,9.94-3.19,11.57l28.84,6.1,1.6-11.79a203.21,203.21,0,0,1-24.83-4l-1.6,11.79a330.79,330.79,0,0,1,36.12,6.91l1.6-11.79a169.54,169.54,0,0,1-37.59-7.58l-1.6,11.79A225.41,225.41,0,0,1,135,456l1.6-11.79A172.78,172.78,0,0,1,95,437.08l-1.6,11.79a36.11,36.11,0,0,1,12.12,1.93l1.6-11.79a37.26,37.26,0,0,1-16.39-3.91l-3,11.18a230.75,230.75,0,0,1,24.86-.77c6.69,0.15,8.26-10.26,1.6-11.79l-23.58-5.4L87.38,439.9a149.55,149.55,0,0,1,37.43,10.72l1.43-11a52.23,52.23,0,0,1-23.07,1.46C95.7,439.86,92.33,451,100,452.68l20.41,4.48,1.6-11.79a55.88,55.88,0,0,1-16.31-1.75l-1.6,11.79c15.12,0.92,30.2,2.36,45.2,4.45,7.49,1,10.87-10.33,3.19-11.57a28.78,28.78,0,0,1-11.68-4.5l-3,11.18q25.3,1.4,50.48,4.31c6.71,0.78,8.16-10.37,1.6-11.79a108,108,0,0,1-25-8.57l-3,11.18a213.09,213.09,0,0,1,56.07,5.41V444a12.07,12.07,0,0,1-8.41-2.06l-3,11.18a306.88,306.88,0,0,1,50.28,6.43l1.6-11.79a6.53,6.53,0,0,1-4.83-3.05l-3.59,8.81a146.51,146.51,0,0,1,28.44-3.5c8.76-.2,17.28.87,26,1.54,8.45,0.65,15.14-2.59,22.92-5.24A79.65,79.65,0,0,1,355,442.16l-5.79-7.6a0.74,0.74,0,0,0-.08-0.55v10.36a38.46,38.46,0,0,1,29-4.27V428.54c-9,1.42-17.75-3.86-25.24-8.17l-3,11.18a29.77,29.77,0,0,1,18.33,4.72l3-11.18a109.38,109.38,0,0,1-40.45-7.65l-1.6,11.79a37.07,37.07,0,0,1,15.12,2.89l1.6-11.79a123.32,123.32,0,0,1-29.59-2.82l-1.6,11.79c2.81-.38,5.12-0.16,7.31,1.81l4.24-10.24a333.36,333.36,0,0,1-44.55-6.58c-7.52-1.63-10.61,9.3-3.19,11.57,2,0.62,4.9,1.18,5.35,3.49l2.76-6.78c-12,5.26-25.2,6.57-38.06,7.83-7.58.74-7.85,11.67,0,12A841.83,841.83,0,0,1,371.3,456.6c6.41,1.22,10.83-7.4,4.62-11l-18-10.36-1.43,11c2.47-.42,10-1.25,12,1L366.69,443c0-2.14,1.58-2.14-1.39-.74a37.06,37.06,0,0,1-4,1.62,42.61,42.61,0,0,1-8.28,1.93L356,457a13.62,13.62,0,0,1,11.77-1.62l-1.43-11A31.19,31.19,0,0,1,353,449.43l1.6,11.79a32.66,32.66,0,0,1,15.08-1.05l-2.65-10a18,18,0,0,1-12.74,4.35l1.6,11.79c1.76-.59,2.23-0.48,4,0.21V454.91c-14.55,6-29.83.62-43.84-4.44l-1.6,11.79c1.5,0.09,2,.86,2.64,2.1l3.59-8.81c-11.88,3.39-24.8-.39-36.4-3.4-12-3.11-23.81-7-35.6-10.85-5.17-1.7-9.17,4.43-6.78,8.81l-0.21-2.7-0.88.49c-1-.13-3.45,1-4.55,1.3-2.75.72-5.53,1.33-8.33,1.8a95.21,95.21,0,0,1-17.27,1.14c-6.61-.1-8.36,10.47-1.6,11.79q27.45,5.35,54.69,11.66L266.9,464a206.39,206.39,0,0,1-36.31-9.56L229,466.24a226.22,226.22,0,0,1,47.85,8.52L280,463.19c-50.79-9.33-102.51-10.07-153.8-14.92v12a117,117,0,0,1,35.13,5.09l1.6-11.79a460.29,460.29,0,0,1-56.58-7.22c-7.57-1.45-10.54,9-3.19,11.57l23.71,8.15,1.6-11.79a70.56,70.56,0,0,1-30.57-5.39l-1.6,11.79a105.91,105.91,0,0,1,22.84.57c6.78,0.9,8-10.13,1.6-11.79A80.86,80.86,0,0,1,98,439.73l3,5.18q-2,2.48,0,1.52a9.68,9.68,0,0,1,2.7-.32c1.87-.19,3.76-0.28,5.64-0.42l14.11-1.06c4.08-.31,8.32-0.41,12.22-1.75a36.87,36.87,0,0,0,5-2.29q1.36-.77,2.76-1.46,1.79-.26.61-0.46c3,1.27,6.39.88,8.21-2.15,1.5-2.5.83-6.95-2.15-8.21-5.86-2.48-10.06-.84-15.48,1.92-5.65,2.88-12.46,2.5-18.68,3-9,.67-26.22-1.05-26.91,11.72a6,6,0,0,0,3,5.18,92,92,0,0,0,25.63,11l1.6-11.79a105.91,105.91,0,0,0-22.84-.57c-7,.58-7.83,9.22-1.6,11.79a78.81,78.81,0,0,0,33.76,5.82,6,6,0,0,0,1.6-11.79l-23.71-8.15-3.19,11.57A486.65,486.65,0,0,0,163,465.58c6.93,0.45,7.89-9.88,1.6-11.79a128.5,128.5,0,0,0-38.32-5.52c-7.85.06-7.56,11.28,0,12,50.2,4.75,100.9,5.37,150.61,14.49,7.49,1.38,10.72-9.39,3.19-11.57a241.52,241.52,0,0,0-51-9c-7.14-.48-7.59,9.61-1.6,11.79a206.39,206.39,0,0,0,36.31,9.56c7.47,1.25,10.84-9.8,3.19-11.57q-27.24-6.31-54.69-11.66l-1.6,11.79c9.42,0.15,51.78-1.48,41.61-20.09l-6.78,8.81c13,4.26,26,8.53,39.3,11.79,12.71,3.11,26.18,6.15,39.08,2.47a6.08,6.08,0,0,0,3.59-8.81c-2.67-5.11-7.35-7.7-13-8-7.14-.44-7.61,9.61-1.6,11.79,15.91,5.75,33.74,11.27,50.22,4.44,5.61-2.32,5.71-9.27,0-11.57a14.55,14.55,0,0,0-10.33-.21c-6.34,2.13-5.35,11.6,1.6,11.79a30.36,30.36,0,0,0,21.22-7.86c3.23-2.81,1.71-9.27-2.65-10a46.36,46.36,0,0,0-21.46,1.05c-6.2,1.82-5.37,12.6,1.6,11.79a44.37,44.37,0,0,0,19.4-6.7,6.08,6.08,0,0,0-1.43-11,25.56,25.56,0,0,0-21,2.83c-4.61,2.86-3.25,12,3,11.18,7.54-.94,24.93-3.63,25.7-13.53,0.9-11.63-18.24-10.8-25.43-9.57-5.24.89-5.62,8.56-1.43,11l18,10.36,4.62-11a864.15,864.15,0,0,0-125.9-14.63v12c15.15-1.49,30.06-3.29,44.12-9.47,2.53-1.11,3.22-4.37,2.76-6.78-1.32-6.84-7.64-10-13.73-11.87l-3.19,11.57a357.58,357.58,0,0,0,47.74,7c5.14,0.41,8-6.88,4.24-10.24-4.39-4-9.84-6.13-15.8-5.33s-8.87,10.18-1.6,11.79a137.21,137.21,0,0,0,32.78,3.24c7.18-.17,7.62-9.33,1.6-11.79a45.63,45.63,0,0,0-18.31-3.32c-7.12.14-7.69,9.4-1.6,11.79a118.71,118.71,0,0,0,43.64,8.08c6.09,0,8-8,3-11.18a40.85,40.85,0,0,0-24.39-6.36c-5.74.33-8.42,8.08-3,11.18,10.81,6.21,21.75,11.39,34.49,9.38,6-.94,5.44-10.23,0-11.57A51,51,0,0,0,343.05,434a6.06,6.06,0,0,0,0,10.36c7,4.15,14.88.55,17.71-6.62,1.49-3.77-2.25-7.51-5.79-7.6a90.93,90.93,0,0,0-27.37,3.42c-8.79,2.55-15.6,6.7-25,5.75-18.92-1.91-37.24-1.56-55.88,2.56-3.65.81-5.66,5.68-3.59,8.81a19.46,19.46,0,0,0,15.19,9c6.72,0.66,8.17-10.38,1.6-11.79a326.86,326.86,0,0,0-53.47-6.86c-6.17-.28-7.86,8.17-3,11.18,5.51,3.43,11.32,4.25,17.66,3.27,6-.92,5.48-10.29,0-11.57a225.81,225.81,0,0,0-59.26-5.84c-5.57.19-8.66,8.42-3,11.18a121,121,0,0,0,27.86,9.78l1.6-11.79q-25.17-2.91-50.48-4.31c-6.29-.35-7.69,8.12-3,11.18a37.06,37.06,0,0,0,14.54,5.71l3.19-11.57c-16.07-2.23-32.2-3.89-48.39-4.88-6.81-.41-8.07,10.1-1.6,11.79a67.59,67.59,0,0,0,19.5,2.18c6.51-.23,8.46-10.28,1.6-11.79l-20.41-4.48L100,452.68a66.32,66.32,0,0,0,29.45-1.46c4.53-1.29,6.38-8.79,1.43-11a160.59,160.59,0,0,0-40.29-11.93c-7.44-1.15-10.88,9.81-3.19,11.57L111,445.3l1.6-11.79a230.75,230.75,0,0,0-24.86.77c-5.41.46-8.82,8.29-3,11.18A51,51,0,0,0,107.12,451c7,0.1,7.88-9.71,1.6-11.79a47,47,0,0,0-15.31-2.36c-6.8.07-8.1,9.85-1.6,11.79a186.5,186.5,0,0,0,44.81,7.53c6.73,0.31,8.19-10.24,1.6-11.79a254.41,254.41,0,0,0-27.57-4.82c-7-.84-7.74,9.82-1.6,11.79a183.79,183.79,0,0,0,40.78,8c6.79,0.57,8.09-10.18,1.6-11.79a359.23,359.23,0,0,0-39.31-7.33c-6.71-.88-8.13,10.33-1.6,11.79a229.4,229.4,0,0,0,28,4.42c6.72,0.65,8.18-10.39,1.6-11.79l-28.84-6.1-3.19,11.57,26.52,3.76c3.23,0.46,6.41-.79,7.38-4.19,0.81-2.82-1-6.91-4.19-7.38l-27.92-4.07c-7.5-1.09-10.86,10.29-3.19,11.57A35.35,35.35,0,0,0,126,448.1c5.37-2.13,6-9.66,0-11.57l-15.27-4.87-3.19,11.57a89,89,0,0,0,28.87,2.88,6,6,0,0,0,1.6-11.79,101.19,101.19,0,0,0-30.16-5.9c-7.35-.33-7.33,9.37-1.6,11.79a47.88,47.88,0,0,0,24.61,3.38c6.07-.76,8.87-10.32,1.6-11.79L101,425.47V437l30.73-4.53c6.51-1,4.81-9.72,0-11.57a119.12,119.12,0,0,0-34.36-7.53c-6.73-.49-8.18,10.33-1.6,11.79a193.57,193.57,0,0,0,26.61,3.93v-12l-12.88.33c-6.56.17-8.4,10.23-1.6,11.79a225.48,225.48,0,0,0,38.56,5.38c7.77,0.41,7.61-11.37,0-12a372.31,372.31,0,0,0-38.74-1.18c-6.63.14-8.31,10.09-1.6,11.79a240.05,240.05,0,0,0,36.26,6.17c7.79,0.73,7.47-11,0-12l-17.23-2.27c-6.74-.89-8.08,10.23-1.6,11.79a26.11,26.11,0,0,0,14-.32c5.17-1.57,6.23-10.66,0-11.57l-6-.87L130,436c36.43,2,70.06,19.45,106.73,20.13,7,0.13,7.78-9.63,1.6-11.79a175.83,175.83,0,0,0-35.1-8.18c-6.89-.91-7.83,9.92-1.6,11.79q18.9,5.64,38,10.51c12.16,3.08,24.67,7.18,37.3,5.22,6.25-1,5.14-9.94,0-11.57a223.92,223.92,0,0,0-40.16-8.65c-7.23-.9-7.35,9.54-1.6,11.79a276.62,276.62,0,0,0,37.07,11.62c10.48,2.48,23.49,6.7,33.41.56,3.43-2.12,4.37-8.5,0-10.36A141.15,141.15,0,0,0,260.52,446c-7.07-.53-7.68,9.7-1.6,11.79,9.82,3.37,19.78,6.3,29.88,8.69,8.15,1.93,16.82,4.44,23.77-1.69,2.94-2.59,1.94-7.56-1.21-9.42A104,104,0,0,0,262,441c-7-.25-7.79,9.7-1.6,11.79,13.14,4.43,26.47,8.25,40,11.36,11.41,2.63,24,6.4,35,.59,4.91-2.59,3.11-9.31-1.43-11a236.59,236.59,0,0,0-47.24-11.85c-7.69-1.11-10.36,8.58-3.19,11.57a234.15,234.15,0,0,0,35.89,11.74c10.17,2.42,21.33,5.61,30.22-1.6,2.83-2.3,2.09-7.91-1.21-9.42a118.51,118.51,0,0,0-45.14-10.9c-5.72-.22-8.48,8.63-3,11.18a108.22,108.22,0,0,0,29.9,9.26c7.47,1.11,22,4.47,26.85-3.51,10.34-16.83-38.13-21.07-46.66-21.46-5.86-.26-8.29,8.48-3,11.18a56,56,0,0,0,39.09,4.76c4.81-1.15,6.1-8.69,1.43-11a112.49,112.49,0,0,0-49.3-11.56c-5.81,0-8.35,8.33-3,11.18a87.43,87.43,0,0,0,47.63,10.32,6.05,6.05,0,0,0,3-11.18c-10.87-7-23.5-9.62-36.06-11.83-7.7-1.36-10.32,8.68-3.19,11.57a64,64,0,0,0,39.61,2.58c4.82-1.2,6.08-8.63,1.43-11a89.5,89.5,0,0,0-31.4-9.1c-6.82-.7-8,10.09-1.6,11.79a209.93,209.93,0,0,0,26.85,5.26c6.58,0.85,17,2.11,17.15-7.52a6.17,6.17,0,0,0-4.4-5.79,198.81,198.81,0,0,0-49.32-10.92c-5.78-.54-8.4,8.79-3,11.18,13,5.8,26.48,11.53,41.06,10.43,5.35-.4,8.9-8.44,3-11.18a89.26,89.26,0,0,0-53.16-7.24c-4.28.71-6,7.29-2.65,10,8.93,7.35,20,11.13,31.62,9.65,6.76-.86,8.1-9.19,1.6-11.79a105.46,105.46,0,0,0-36.37-7.37c-7.25-.19-7.49,9.42-1.6,11.79q14.74,5.92,29.89,10.7l3.19-11.57a376.06,376.06,0,0,0-48.77-7.75c-6.15-.57-7.86,8.34-3,11.18a55.1,55.1,0,0,0,31.67,7.62,6,6,0,0,0,1.6-11.79,111.52,111.52,0,0,0-38.24-6.78c-7.27,0-7.48,9.33-1.6,11.79A272.46,272.46,0,0,0,297.93,449l3.19-11.57a193.3,193.3,0,0,0-34.3-3.76c-5.63-.11-8.6,8.66-3,11.18a51.47,51.47,0,0,0,47.95-2.39,6.07,6.07,0,0,0,0-10.36c-7.82-5.18-16.72-8.1-25.63-10.83l-3.19,11.57a164.64,164.64,0,0,0,38.14,3.78c6.86-.13,8-9.71,1.6-11.79a240.77,240.77,0,0,0-49.84-10.32c-6.82-.69-8,10.09-1.6,11.79a255.35,255.35,0,0,0,34.44,6.53c6.67,0.81,8.23-10.55,1.6-11.79q-23.69-4.4-47.5-8c-7.47-1.14-10.88,10-3.19,11.57l31.2,6.21,1.6-11.79a167.38,167.38,0,0,0-33.46-.24c-5.81.54-8.31,7.82-3,11.18a20.58,20.58,0,0,0,9.81,3.12c6.69,0.59,8.23-10.5,1.6-11.79a123.49,123.49,0,0,0-38-1.55c-6.63.78-8.27,9.41-1.6,11.79A136.75,136.75,0,0,0,252,438.12c7.39,1,10.92-9.63,3.19-11.57l-34.28-8.63-3.19,11.57,43.08,7.08c7.47,1.23,10.77-9.39,3.19-11.57a103.74,103.74,0,0,0-32.81-4c-5.58.22-8.64,8.38-3,11.18A110.94,110.94,0,0,0,264.22,443c6.91,0.87,7.82-9.9,1.6-11.79a103.93,103.93,0,0,0-46.19-3.07c-6.25,1-5.14,10,0,11.57a337.39,337.39,0,0,0,40.77,10.12L262,438.1A337.71,337.71,0,0,0,216,436.81c-5.42.22-8.84,8.6-3,11.18a115.3,115.3,0,0,0,45.19,10.15c6.65,0.12,8.3-10.33,1.6-11.79a447.66,447.66,0,0,0-64.51-9.16c-7.08-.49-7.68,9.68-1.6,11.79a250.31,250.31,0,0,0,50.65,11.67c6.66,0.84,8.24-10.61,1.6-11.79a426.34,426.34,0,0,0-56.67-6.17c-5.67-.23-8.55,8.72-3,11.18a127.61,127.61,0,0,0,42.46,10.82c7.84,0.61,7.45-11,0-12l-79.13-10.35c-6.73-.88-8.09,10.26-1.6,11.79a239.4,239.4,0,0,0,46,6.19c6.73,0.25,8.19-10.2,1.6-11.79-19-4.56-38.25-7.88-57.5-11.16-7.47-1.27-10.84,9.83-3.19,11.57a348.83,348.83,0,0,0,60.82,8.29c6.79,0.32,8.11-10.1,1.6-11.79l-40.66-10.5-1.6,11.79,41.25,1.16c6.63,0.19,8.33-10.49,1.6-11.79L150.79,427c-7.5-1.44-10.71,9.44-3.19,11.57a128.89,128.89,0,0,0,38,4.88c6.57-.14,8.39-10.25,1.6-11.79l-31-7c-7.51-1.7-10.71,9.7-3.19,11.57a72.68,72.68,0,0,0,32.78.55c4.72-1,6.21-8.94,1.43-11a104.9,104.9,0,0,0-22.69-6.9c-7.54-1.34-10.8,10.18-3.19,11.57a134.06,134.06,0,0,0,23.53,2.25c6.6,0,8.37-10.41,1.6-11.79l-19-3.86c-7.51-1.53-10.76,9.82-3.19,11.57A58.85,58.85,0,0,0,179,430.23c6.56-.16,8.4-10.24,1.6-11.79l-13.32-3c-7.51-1.71-10.72,9.78-3.19,11.57A186.42,186.42,0,0,0,184,430.53c6.86,0.86,7.9-10,1.6-11.79a34.58,34.58,0,0,0-14.26-1.14c-5.59.74-8.56,7.79-3,11.18l6,3.65,3-11.18a215.11,215.11,0,0,1-23-1.72c-7-.9-7.72,9.81-1.6,11.79a114,114,0,0,0,29.33,5.3c6.66,0.34,8.3-10.54,1.6-11.79a367.24,367.24,0,0,0-38-5.05c-6.88-.55-7.95,10-1.6,11.79A273.71,273.71,0,0,0,178.49,439l1.6-11.79-30.73-3.52c-6.76-.77-8.08,10.22-1.6,11.79a366.45,366.45,0,0,0,43.57,7.7v-12l-30.93-3.41c-7-.77-7.71,9.78-1.6,11.79a154.68,154.68,0,0,0,50,7.63c6.8-.08,8.1-9.83,1.6-11.79a181,181,0,0,0-41-7.29c-7.73-.48-7.65,11.44,0,12a295.5,295.5,0,0,0,39.89.21c6.42-.4,8.54-10.21,1.6-11.79l-34-7.7-1.6,11.79,31.78-.23c6.53,0,8.45-10.56,1.6-11.79l-21.62-3.87-3.19,11.57a251.4,251.4,0,0,0,32.72,3c6.72,0.17,8.21-10.18,1.6-11.79l-6.93-1.68-1.6,11.79a16.69,16.69,0,0,1,6.16,2c0.83,0.46,1.64,1.34,2.49,1.7l-0.06-1.66a4.16,4.16,0,0,1-1.65,1,20.41,20.41,0,0,1-6.2,1.15c-1.14,0-5.15-.13-5.67-1.33l0.6,4.62q-4.22,3-1.32,2.19a12,12,0,0,1,2.71-.28,21.94,21.94,0,0,1,4.48.27c1,0.16,2.55,1,3.49.89q1.34,1.26.85-1,0.83-2.16-.67-1.16c-1.8-.6-4.63.09-6.7-0.49a19.14,19.14,0,0,1-7.81-4.41l-2.65,10c8.36-2.18,16.42,1,21.73,7.64l2.65-10c-4.61,1.92-7.48,1.15-11.68-1-1.94-1,.59.62,0.39,0.63,0.69,0,2-1.26,2.71-1.57a18.08,18.08,0,0,1,7.59-1.53c7.72-.08,7.74-12.08,0-12h0Z"/><path class="cls-1" d="M212.35,457.36a59.9,59.9,0,0,0-28.05,1c-3.92,1.14-8.4,2.57-10.7,6.23a8.4,8.4,0,0,0,1.62,10.67c6.66,6.27,18.49,5.26,26.79,4.53a117.67,117.67,0,0,0,14.64-2.2c4.51-1,9.19-1.75,11.67-6,1.84-3.16.26-8-3.59-8.81a147,147,0,0,0-28.44-3.08c-7.89,0-18.53-.86-24.82,4.59-2.75,2.39-2.16,7.85,1.21,9.42,7.85,3.67,16.33,3.85,24.85,4.14,9.55,0.32,19.1.24,28.65,0.16,7.8-.06,7.64-11.47,0-12-11.07-.77-22.14-1.55-33.22-2.12q-7.82-.41-15.65-0.67c-5-.16-10.25-0.66-15.09,1a6.06,6.06,0,0,0,0,11.57c6.43,2.29,13.74,2.17,20.48,2.48,7.75,0.36,15.51.46,23.27,0.37s7.74-12,0-12c-19,0-37.73-3.94-56.73-3.28-7.86.27-7.56,11.22,0,12,12,1.24,24,1.17,36,1v-12a300,300,0,0,1-51.67.06v12l17.58,0.64v-12a39,39,0,0,1-18.25-3l-3,11.18c4.61,0,9.2.11,13.8,0.44l-1.6-11.79A60.75,60.75,0,0,1,120,464l1.6,11.79a44,44,0,0,1,15.75.16L136,465a24,24,0,0,1-14.48,3v12l13-.4c7.7-.24,7.74-12.24,0-12l-13,.4c-7.82.24-7.61,11.34,0,12A35.13,35.13,0,0,0,142,475.39c4.25-2.4,3.74-10-1.43-11a60.74,60.74,0,0,0-22.14-.16c-7.08,1.22-4.7,11.26,1.6,11.79a70.47,70.47,0,0,0,25.27-2.53c6.73-1.92,5-11.31-1.6-11.79-4.6-.33-9.19-0.48-13.8-0.44-5.52,0-8.74,8.68-3,11.18a51.79,51.79,0,0,0,24.3,4.62c7.68-.46,7.77-11.72,0-12l-17.58-.64c-7.8-.28-7.59,11.35,0,12a300,300,0,0,0,51.67-.06c7.57-.66,7.85-12.09,0-12-12,.14-24,0.21-36-1v12c19-.66,37.75,3.24,56.73,3.28v-12c-7.11.09-14.22,0-21.33-.29-6.32-.26-13.21,0-19.23-2.14v11.57c4.31-1.49,9.37-.67,13.86-0.52q7.83,0.27,15.64.71c10.43,0.56,20.84,1.29,31.26,2V466c-8.28.06-16.56,0.13-24.83-.06-7.19-.17-15.93.52-22.61-2.6l1.21,9.42c1.64-1.42,7.5-.85,9.57-0.94q5.31-.24,10.62-0.06a129,129,0,0,1,21.39,2.58L218,465.52c0.83-1.42,1.08-.67-0.83-0.37-1.53.25-3.07,0.74-4.59,1.06-2.86.6-5.74,1.08-8.65,1.39-5.24.57-11.08,1.2-16.31,0.29-0.42-.07-3-1-3.22-0.89l-0.67,4.21,1.32-.52c2.31-.06,5.18-1.56,7.54-2a46.07,46.07,0,0,1,16.62.2c7.55,1.43,10.78-10.13,3.19-11.57h0Z"/><path class="cls-1" d="M181.92,483.75c-7.31-8.26-19.94-8.89-30.18-9.85-12-1.13-25.87-2.12-37.49,1.86-4.45,1.52-6.43,8.58-1.43,11,9.74,4.64,22,3.33,32.55,3.08,11.78-.28,23.55-1,35.35-0.94v-12A499.48,499.48,0,0,1,99,471.47V483l31.08-6.63c7.07-1.51,4.71-11.17-1.6-11.79l-15.95-1.55-7.5-.73-3.75-.36c-1.48-.14-3.42-1.17-2.17.95l-3.59,8.81a136.86,136.86,0,0,1,21-5.11c6.6-1.06,5.13-12.64-1.6-11.79-16.22,2.07-32.44,4.16-48.4,7.73-7.53,1.69-4.35,13.26,3.19,11.57,14.92-3.34,30.06-5.37,45.21-7.31l-1.6-11.79a136.86,136.86,0,0,0-21,5.11A6.08,6.08,0,0,0,88.8,469c3.4,5.76,11.37,4.88,17.22,5.45l22.51,2.19-1.6-11.79-31.08,6.63c-5.54,1.18-5.91,10.68,0,11.57a518.64,518.64,0,0,0,84.87,5.84c7.72-.11,7.74-12,0-12-10.48,0-20.95.51-31.42,0.83-5.23.16-10.47,0.27-15.7,0.2-4.66-.06-10.4.52-14.72-1.54l-1.43,11c9.51-3.26,20.69-2.44,30.59-1.74,7.76,0.55,19.82.32,25.4,6.63,5.13,5.8,13.59-2.72,8.49-8.49h0Z"/><path class="cls-1" d="M155.76,484c-17.23-1-34.46-2.08-51.7-3-8.22-.45-16.45-0.82-24.69-0.8-8,0-16.13.13-23.69,2.86-3.34,1.21-6,5.4-3.59,8.81,3.76,5.36,9,6.76,15.28,7.38,8,0.79,16.13,1.08,24.19,1.29,16.48,0.44,33,.09,49.45-0.25,7.76-.16,7.68-11.57,0-12-34.21-1.93-68.32-6.89-102.65-5.21-3.58.17-7.22,3.74-5.79,7.6,3.11,8.39,15,7.86,22.57,8.74,9.49,1.1,19,1.6,28.53,2.54a131.91,131.91,0,0,1,28,5.34,44.4,44.4,0,0,1,5.31,2.29q0.29-2.58-.93-0.51a11.8,11.8,0,0,1-2.51,1.92c-3.57,2.31-7.79,3.42-11.83,4.59-6.44,1.88-5.27,11.79,1.6,11.79a207.15,207.15,0,0,1,30.87,2.05c1.66,0.25,5.42,1.85,6.92,1.49q1.85,1,.65-1.76,0.75-2.71-1-1.8c-0.71-.17-2.47.59-3.24,0.69a25,25,0,0,1-13.83-2.13l2.76,6.78c0.48-2.45,3.64-4.35,5-6.43a16.93,16.93,0,0,0,2.74-8.06,20.35,20.35,0,0,0-7.46-16.82c-5.5-4.66-12.36-6.62-19.28-8a230.93,230.93,0,0,1-23.38-5.93V499c7.66-3.06,17.42-2.12,25.52-2.17,9.34-.07,18.66.21,28,0.77v-12q-16.93-.24-33.81-1.55c-7.7-.6-7.66,11.4,0,12q16.88,1.31,33.81,1.55c7.77,0.11,7.66-11.54,0-12-10-.59-19.93-0.87-29.91-0.75-8.62.1-18.63-.67-26.78,2.58-5.35,2.14-6,9.66,0,11.57s12,3.55,18.15,4.87c5.51,1.19,11.51,1.8,16.57,4.43,3.5,1.82,8,5.74,6.39,10.23-0.68,1.91-2.54,3.14-3.83,4.65a13.49,13.49,0,0,0-3.31,6.35c-0.47,2.42.26,5.62,2.76,6.78a38.17,38.17,0,0,0,23.91,3.23c6.58-1.31,14.8-6.31,11.07-14.3-3.29-7-14.81-7.37-21.42-8.18a226.16,226.16,0,0,0-27.89-1.65l1.6,11.79c8.22-2.4,20.85-6.14,23.47-15.62C131.55,500,117,496.09,108.9,494c-10.86-2.78-22.09-3.85-33.23-4.76-5.66-.46-11.32-0.87-17-1.45-3-.31-6-0.66-9-1.11-2.42-.37-5.83-0.35-7.88-1.73l2.76,3.59-0.39-1.05-5.79,7.6c34.33-1.67,68.44,3.28,102.65,5.21v-12c-13.9.29-27.8,0.58-41.7,0.4C92.53,488.6,85.75,488.4,79,488c-3.23-.17-6.45-0.38-9.67-0.64-1.64-.13-5.73,0-6.85-1.59l-3.59,8.81c7.2-2.6,14.84-2.46,22.4-2.43,8.24,0,16.47.44,24.69,0.9,16.6,0.94,33.2,1.94,49.8,2.92,7.71,0.45,7.69-11.55,0-12h0Z"/><path class="cls-1" d="M121.67,500.15a68.63,68.63,0,0,1-32.59,4.23l1.6,11.79a98.38,98.38,0,0,1,32.07-2l-1.6-11.79c-23.71,3.72-47.69-.69-71-5-7.55-1.4-10.79,10.17-3.19,11.57,25.62,4.74,51.36,9.09,77.38,5,7.16-1.12,4.61-11.19-1.6-11.79a108.62,108.62,0,0,0-35.26,2.46c-7.06,1.65-4.7,11.1,1.6,11.79a76.52,76.52,0,0,0,35.78-4.66c7.13-2.74,4-14.35-3.19-11.57h0Z"/><path class="cls-1" d="M103.25,483.08c-10.93-.19-21.85-0.73-32.74-1.68-10.23-.89-21.08-1.42-31-4.19l2.65,10c3-2.66,8.1-3.24,11.87-4.19q7.53-1.89,15.15-3.37c10.27-2,20.63-3.44,31-4.47l-3-11.18c-5.92,4.29-16.14,3.4-23.09,3.33a129.86,129.86,0,0,1-25.64-2.85l1.43,11c2.72-1.78,8.84-1.15,12.15-1.38q7.3-.51,14.62-0.74c9.43-.29,18.86-0.21,28.29.19v-12a171.62,171.62,0,0,1-30.65-2.66q-7.5-1.37-14.87-3.4c-4.13-1.14-8.62-2.07-11.75-5.17l1.54,5.84c1.05-2.91,4.68-4.22,7.33-5.24A103.13,103.13,0,0,1,70.09,447c9-2.09,18.12-3.36,27.25-4.58,7.43-1,8-11.74,0-12l-33-1.06L66,441.11c9.37-2.67,18.91-3.56,28.58-4.32,7.6-.6,7.8-12.28,0-12-21.31.76-42.65-.09-63.5-4.87l4.19,7.38c-0.5,2-4,2.33.1,1.89,1.24-.13,2.5-0.21,3.75-0.3q4.69-.3,9.39-0.27A125.84,125.84,0,0,1,66.53,430l-4.19-7.38-0.23.74,2.76-3.59c-3.11,1.56-8,1.58-11.42,2-4,.52-8,0.89-12,1.4-7.95,1-15.75,2.31-23.21,5.33-2.87,1.16-5.32,4-4.19,7.38,3.21,9.54,16.65,9.77,25.07,10.8,5.24,0.64,10.51,1,15.77,1.38,2.79,0.19,5.59.36,8.38,0.56l4.65,0.36c2.23,0.19,2.1.91,0.91-1l3.59-8.81c-18.17,5.44-37.43,4.23-56,7.33-6.88,1.15-4.92,11.6,1.6,11.79l63.43,1.85-5.18-9q3-2.53-.68-1.64l-4,.09q-3,.06-5.93.06-6.43,0-12.85-.19c-8.9-.28-17.77-0.91-26.62-1.8v12c11.31-.09,22.63-0.06,33.92.64,5.58,0.35,11.16.83,16.69,1.59,2.7,0.37,11.46.49,12.67,2.92L93,456.08a60.44,60.44,0,0,1-21.77,4.29c-6.16.18-15.24,1.37-20.63-2.11l1.21,9.42c4.36-5.09,13.34-6.9,19.21-9.8,6.22-3.08,12-6.37,12.55-13.94a6,6,0,0,0-3-5.18,31.92,31.92,0,0,0-24.23-3.69c-7.52,1.76-4.33,13.33,3.19,11.57a19.49,19.49,0,0,1,15,2.48l-3-5.18c-0.06.81-5,2.76-5.79,3.18-3.07,1.54-6.2,3-9.38,4.3-4.81,2-9.6,3.72-13.08,7.78-2.58,3-2.21,7.21,1.21,9.42,7.13,4.61,16.8,3.92,25,3.79,9.1-.15,18.23-1.25,26.69-4.76,3.72-1.54,5.48-5,3.59-8.81-2.37-4.77-7.31-6.3-12.2-7.21-6.54-1.21-13.18-2.05-19.8-2.66C54,447.7,40,447.63,26.15,447.75c-7.87.06-7.54,11.24,0,12,11.15,1.13,22.34,1.81,33.54,2q7.91,0.1,15.82-.13c4-.12,9.18.06,11-4.3,1.76-4.13-.24-8.88-5.18-9L17.94,446.4l1.6,11.79c18.63-3.11,37.77-1.87,56-7.33,3.59-1.07,5.71-5.46,3.59-8.81-2.25-3.56-5.42-4.39-9.42-4.8-5.26-.55-10.55-0.79-15.82-1.15-5-.33-9.92-0.69-14.84-1.32q-4.26-.54-8.48-1.44c-1.21-.26-2.42-0.52-3.62-0.84-1.42-.38-1.87-1.1-1.4.28l-4.19,7.38c9.19-3.72,18.86-4.77,28.63-5.89,4.54-.52,9.09-1.07,13.58-1.92s8.82-1.6,10.33-6.48c0.88-2.83-1-6.9-4.19-7.38a143.75,143.75,0,0,0-26.88-1.77c-6.39.23-17.18-.61-19.17,7.4-0.75,3,1,6.64,4.19,7.38,21.88,5,44.31,6.09,66.69,5.3v-12c-10.7.85-21.42,1.8-31.77,4.75-6.58,1.87-5.16,11.57,1.6,11.79l33,1.06v-12c-12,1.61-24.17,3.15-35.91,6.4-9.62,2.66-20.09,5.95-23.79,16.16a5.92,5.92,0,0,0,1.54,5.84c7.54,7.47,20,9.36,30,11.3a189,189,0,0,0,35.72,3.45c7.75,0,7.69-11.68,0-12-10.73-.45-21.46-0.49-32.19,0q-7.8.32-15.58,1c-4.38.37-9.54,0.16-13.34,2.64-4,2.64-3.91,9.84,1.43,11A145.75,145.75,0,0,0,76,479.35c8.66,0,19.92.34,27.26-5,4.26-3.08,3.53-11.83-3-11.18a364.74,364.74,0,0,0-36.14,5.28c-9.95,2-22.51,3.36-30.41,10.27-3.47,3-1.48,8.88,2.65,10,10.31,2.88,21.64,3.48,32.27,4.45,11.53,1.06,23.09,1.65,34.66,1.85,7.72,0.14,7.73-11.86,0-12h0Z"/><path class="cls-1" d="M96.75,440.64c-10.5.53-24.71,1.87-32.44,9.86a6.14,6.14,0,0,0-.94,7.27c3.89,6.6,11.75,6.54,18.55,6a74.31,74.31,0,0,0,24.74-6.45,5.82,5.82,0,0,0,3-5.18c-0.52-9.06-11.1-10.91-18.49-11.5a41.61,41.61,0,0,0-23.6,5.19c-7.07,4.06-12.48,10.84-12.41,19.29,0.06,8.18,4.13,16.84,8.72,23.41C68.18,494.75,73.74,501,82,500.3a16.13,16.13,0,0,0,14.63-14,17.91,17.91,0,0,0-9.41-17.49c-7.52-4-16.18-1.63-22.38,3.54-3.46,2.89-1.51,9.05,2.65,10a25.62,25.62,0,0,0,18.61-2.44c5.14-2.76,2.92-11.51-3-11.18-8.42.46-24.21,4.28-23.49,15.43S76.3,498.52,85,499.35c6.95,0.67,7.82-9.87,1.6-11.79l-20-6.15,3.59,8.81c4.77-9.22,28.3-14.87,24.45-27.86-2.12-7.14-12.45-8.06-18.51-9.57-2.2-.55-4.41-1.09-6.58-1.76-0.71-.22-4.21-2.06-4.91-1.79q-2.29,7.67,1.63,4.55L69.33,452l6.26-3.53c4.34-2.45,3.66-9.85-1.43-11q-19.32-4.22-38.34-9.67l-1.6,11.79A63.52,63.52,0,0,1,54.1,442.2l-4.19-7.38-0.23.87,2.76-3.59c-2.41,1.7-7.57,1.24-10.52,1.39a102.92,102.92,0,0,1-11.73-.15l1.6,11.79a107.58,107.58,0,0,1,27.38-2.58v-12l-22.78.92c-6.92.28-14.24,0-20.89,2.13-5.1,1.67-6.29,10.59,0,11.57a155.23,155.23,0,0,0,21.26,1.92c7.72,0.14,7.73-11.86,0-12a132,132,0,0,1-18.07-1.49v11.57c6.2-2,13.22-1.52,19.68-1.78l20.8-.84c7.71-.31,7.74-11.76,0-12a120.89,120.89,0,0,0-30.57,3c-6.89,1.57-4.89,11.37,1.6,11.79a102.63,102.63,0,0,0,19.53-.56c5-.63,10.3-1.16,11.77-6.78a6.11,6.11,0,0,0-4.19-7.38,74.75,74.75,0,0,0-23.06-3c-6.71.19-8.21,9.89-1.6,11.79q19,5.44,38.34,9.67l-1.43-11c-5.66,3.19-17.82,7.18-15.92,15.7,1.68,7.55,14,9.23,20.08,10.73,1.93,0.48,3.87.93,5.79,1.47q1.64,0.45,3.27,1,3.36,1.64-.21-2.83c-0.58,0-3.18,2.91-3.83,3.39-1.27.94-2.62,1.77-3.95,2.62-5.88,3.76-11.72,7.61-15,14A6.09,6.09,0,0,0,63.34,493l20,6.15L85,487.35A34.38,34.38,0,0,1,78.24,486c-0.93-.28-5.93-1.56-6.15-2.66q-0.42,1.68,1.38-.12a15.09,15.09,0,0,1,3.1-1.31A23.93,23.93,0,0,1,83,480.75l-3-11.18a12.65,12.65,0,0,1-9.36,1.23l2.65,10c2.74-2.29,7.23-3.07,9.88-.21,1.8,1.94,2.32,5,.11,6.82-5.7,4.61-12.6-10.39-14.05-14-1.34-3.38-3-7.76-1.58-11.37s5.54-5.88,8.85-7.25a30.32,30.32,0,0,1,11.35-2.24,29.89,29.89,0,0,1,6.62.66q1.62,0.36,3.19.88,2.84,1.58,0-1.92l3-5.18a59.28,59.28,0,0,1-15,4.39c-1.83.28-11,1.74-11.87,0.35L72.79,459c5.21-5.38,17-6,24-6.35,7.68-.39,7.73-12.39,0-12h0Z"/><path class="cls-1" d="M170.65,495.41a342.17,342.17,0,0,1,69-7.15L238,476.48c-8.6,3.59-18.34,2.3-27.41,1.64-9.85-.71-19.66-1.78-29.48-2.85v12q30.7,1.27,61.43.83c7.72-.11,7.74-12,0-12l-53.24-.31c-7.93,0-7.45,11.08,0,12,17,2.09,34,2.73,51.11,3.32v-12a21,21,0,0,1-9.56-.78c-7.38-2.34-10.54,9.24-3.19,11.57a29.19,29.19,0,0,0,12.75,1.2c7.44-1,8-11.73,0-12-17.07-.58-34.14-1.23-51.11-3.32v12l53.24,0.31v-12q-30.72.44-61.43-.83c-7.86-.32-7.51,11.18,0,12,10.47,1.14,20.94,2.29,31.45,3,9.53,0.64,19.61,1.56,28.63-2.21,5.83-2.44,5.74-11.81-1.6-11.79a358.49,358.49,0,0,0-72.14,7.58c-7.56,1.57-4.36,13.14,3.19,11.57h0Z"/><path class="cls-1" d="M215.23,482.66a257.9,257.9,0,0,1,73.47-4.56l-3-11.18c-8,4.58-20.13,2.7-28.91,2.09a304.09,304.09,0,0,1-31.41-4.18l-1.6,11.79a206.34,206.34,0,0,1,25.6.64c7.56,0.68,16.63,1,23.54,4.43l-1.21-9.42c-4.85,4.79-12.85,4.8-19.23,5.21-8.15.52-16.31,0.49-24.47,0.4-7.75-.09-7.69,11.66,0,12a73.94,73.94,0,0,1,11.16,1.33c7.54,1.5,10.77-10.07,3.19-11.57A95.65,95.65,0,0,0,228,477.87v12a273.09,273.09,0,0,0,30.32-.88c8.08-.81,15.88-2.35,21.86-8.25,2.6-2.57,2.27-7.69-1.21-9.42-7.94-3.94-17.11-4.74-25.82-5.69a205.35,205.35,0,0,0-29.38-1c-6.43.22-8.55,10.56-1.6,11.79a324.46,324.46,0,0,0,36.55,4.74c10.76,0.65,23.31,1.72,33-3.85,5.47-3.14,2.64-10.73-3-11.18a269.33,269.33,0,0,0-76.66,5c-7.55,1.58-4.36,13.15,3.19,11.57h0Z"/><path class="cls-1" d="M233.75,483.21c-5.6-.15-11.22-0.31-16.82,0-4.85.25-10.78,0.24-15.17,2.57a9.59,9.59,0,0,0-5.11,10.73c1.14,4.85,5.23,8.26,9.36,10.73,8.25,4.92,18.35,6.3,27.81,6.25s23.26-.79,30.76-7.47a6,6,0,0,0,.94-7.27c-3.32-5.18-8.73-6.6-14.36-8.15a146,146,0,0,0-20.62-4.17,91.33,91.33,0,0,0-20.19-.48c-6.07.59-11.73,1.48-14,7.88a5.81,5.81,0,0,0,1.54,5.84c11.76,9.28,30.48,7.36,44.42,5.47,3.24-.44,4.94-4.55,4.19-7.38-0.92-3.47-4.18-4.62-7.38-4.19a98.06,98.06,0,0,1-17.55.74c-4.69-.21-11.31-0.06-15.19-3.12l1.54,5.84q-2.05,2.15.57,1.12,1.83-.22,3.66-0.35c1.83-.13,3.67-0.2,5.51-0.21a91.43,91.43,0,0,1,14,1c4.27,0.64,8.51,1.55,12.7,2.61,2.49,0.63,9.28,1.26,10.77,3.59l0.94-7.27c-2.11,1.88-6.46,2.16-9.17,2.69a67,67,0,0,1-10.33,1.19,54.81,54.81,0,0,1-18.95-2,24.14,24.14,0,0,1-7.49-3.76,7.85,7.85,0,0,1-1.77-1.62l-1.1,2.4c0.23,0.2,3.55-.67,4.07-0.73,7.42-.87,14.94-0.62,22.4-0.42,7.72,0.21,7.72-11.79,0-12h0Z"/><path class="cls-1" d="M201.62,484.67c-1.37,13.48,9.64,23.8,21.83,27a50.59,50.59,0,0,0,20,1c6-.84,13.24-2.27,15-9a6,6,0,0,0-1.54-5.84c-6.26-5.81-15.5-6.85-23.57-8.49-9.63-2-19.33-3.53-29-5.12l-1.6,11.79c15.32,0.58,31,2.25,46.34,1.75,5.9-.19,10.87-4.65,8.53-10.94-2.13-5.7-8.83-9.89-13.92-12.64-2.76-1.49-5.62-2.76-8.48-4-2.21-1-6.2-3.75-8.55-4q-2.32-1.54-.08,3.1l2.3-1.55q2.3-1.54,4.63-3c3.11-2,6.31-3.84,9.43-5.81,2.54-1.61,4.58-3.14,5.21-6.25a12.52,12.52,0,0,0-.21-4.37q-0.16-1.47-.94.17a8.48,8.48,0,0,1,2.73.28q1.08,0.22,2.14.52-1-2.71-1.86-1c-1,.44-2.33,2.48-3.34,3.25a49.54,49.54,0,0,1-9,5c-6.07,2.86-1.69,13.57,4.62,11l3.35-1.38c7-2.9,4-14.52-3.19-11.57L239.05,456l4.62,11c8-3.79,27.08-15.92,16.24-26.54-4.05-4-12.75-5-17.77-2.83a11.39,11.39,0,0,0-5.76,5.38c-1.79,3.51.07,5.51-.23,8.94l1.76-4.24c-1.8,2.21-5.78,3.72-8.23,5.25-3.12,2-6.28,3.92-9.27,6.08-4.45,3.22-8,8.45-4.51,13.79,3.08,4.69,10.42,6.55,15.31,8.75a80.72,80.72,0,0,1,8.34,4.2,34.5,34.5,0,0,1,3.19,2.11c1,0.77,2.7,3.53,3.26,1.59l2.76-3.59c-1,.71-7.48-0.32-9.43-0.4L226.79,485l-24.13-.91c-6.62-.25-8.36,10.68-1.6,11.79,8.4,1.37,16.81,2.74,25.17,4.36,3.86,0.74,7.71,1.54,11.54,2.4,3.47,0.79,7.89,1.25,10.59,3.76l-1.54-5.84q1.85-1.58.2-.75-1.67.47-3.37,0.82a39.41,39.41,0,0,1-17.77-.68c-7.18-2.09-13.06-7.27-12.25-15.24,0.78-7.68-11.23-7.62-12,0h0Z"/><path class="cls-1" d="M254,486.56q15.18-.19,30.35.17,7.34,0.19,14.68.52,3.91,0.18,7.82.39l3.91,0.23q3.11,0.55,1.47-.1l1.21-9.42a57.23,57.23,0,0,1-39.75,1.46v11.57c6.62-2.67,15-1.93,22-2.28,8-.39,16-0.67,24-0.76l-1.6-11.79a194.67,194.67,0,0,1-36.11,2.33v12a57.36,57.36,0,0,1,13.34.25l-2.65-10a33,33,0,0,1-17.87,9.18l5.84,10L287,494c4.05-4,.63-9.62-4.24-10.24L248,479.3v12a300.09,300.09,0,0,0,32.8,0c9.58-.53,20.92-0.28,29.71-4.48,3.8-1.82,4.06-8.63,0-10.36l-11.73-5-1.43,11c8.35-3.22,16.95-3.08,25.76-2.81v-12c-4.89,0-9.77-.1-14.64-0.53-2.39-.21-4.77-0.47-7.14-0.82q-1.93-.29-3.86-0.63-3.37-1-.86.25l1.76,4.24v-0.75l-4.4,5.79a118.48,118.48,0,0,1,31-.44L323.45,463a19.39,19.39,0,0,1-12.71.1l-1.6,11.79a262.11,262.11,0,0,1,53,1.2l-1.6-11.79c-4.11,1.11-8.14,1-12.37.77v12c4.82-.21,9.64-0.23,14.46-0.05l-1.6-11.79-1.35.41c-7.6.82-7.68,12.83,0,12a21.76,21.76,0,0,0,4.54-.84c6.44-2.07,5.27-11.54-1.6-11.79-4.83-.18-9.64-0.16-14.46.05-7.72.34-7.73,11.65,0,12,5.27,0.24,10.43.18,15.56-1.2,7-1.9,4.74-11-1.6-11.79a262.11,262.11,0,0,0-53-1.2c-6.64.52-8.27,9.66-1.6,11.79a30.52,30.52,0,0,0,19.09-.1c6.71-2.22,5-11-1.6-11.79a129.92,129.92,0,0,0-34.23.87c-2.55.39-4.42,3.38-4.4,5.79,0,7.46,8,7.94,13.71,8.74a155.23,155.23,0,0,0,23,1.5c7.74-.07,7.72-11.77,0-12-9.77-.3-19.7-0.33-29,3.24-4.15,1.6-6.71,8.72-1.43,11l11.73,5V476.51c-4.08,2-9.6,1.76-14,2.15s-9,.69-13.49.88c-9.65.4-19.3,0.29-28.95-.23-7.89-.43-7.43,11,0,12l34.76,4.47-4.24-10.24-6.33,6.29c-4.52,4.49.21,11.06,5.84,10a44.12,44.12,0,0,0,23.17-12.27c2.91-2.89,2-9.35-2.65-10a70.59,70.59,0,0,0-16.53-.67c-7.6.65-7.83,11.8,0,12a211.68,211.68,0,0,0,39.3-2.76c6.76-1.09,5-11.86-1.6-11.79-8.66.09-17.31,0.42-26,.86-7.52.38-16.21-.25-23.3,2.61-5.33,2.15-6,9.66,0,11.57,16.32,5.19,33.31,4,49-2.67,3.74-1.58,3.55-6.92,1.21-9.42-3.16-3.39-7.6-3.28-11.91-3.53q-9.29-.53-18.58-0.84-18.11-.6-36.22-0.35c-7.72.1-7.74,12.1,0,12h0Z"/><path class="cls-1" d="M424.1,450.61c-8.55-1.35-16.31-5.47-24.49-8.1a151.2,151.2,0,0,0-25.78-5.74A186.74,186.74,0,0,0,347.41,435c-6.91,0-16.87,1.36-16,10.73,0.67,7.63,12.68,7.7,12,0q-2.23,1.77-.36,1.37,1.28-.1,2.57-0.08c1.83,0,3.67,0,5.51,0q5,0.07,10.09.41a152.25,152.25,0,0,1,21.1,2.89,138.76,138.76,0,0,1,19.34,5.54c6.39,2.35,12.52,5.24,19.3,6.31,7.55,1.19,10.81-10.37,3.19-11.57h0Z"/><path class="cls-1" d="M414,424.78a105.27,105.27,0,0,0-48,8.52c-5.4,2.34-17.09,8.18-10.14,15.66,5,5.33,15,5.34,21.64,4.89a62.75,62.75,0,0,0,22.26-5.69c6.5-3,14.64-7.47,14.41-15.66-0.42-15.09-24.52-17.38-35.45-16.23-13.54,1.42-31.05,9.51-32.41,25-1.25,14.25,14.26,24.34,27.11,24.13,13.83-.23,25.11-11.18,27-24.68,0.89-6.52-.4-13.74-4.94-18.73-5.57-6.12-13.88-5.48-21.19-3.33-7.65,2.25-15.13,6.8-19,14-3.82,7-4.38,16,.16,22.79s12.6,10,20.3,11.55c8.52,1.71,18.32,2.41,26.11-2.09,1.67-1,3.2-3.16,3-5.18-2.81-25.09-40.85-13.73-54.62-6.29a6.06,6.06,0,0,0-2.76,6.78l0.57,1.75a6.26,6.26,0,0,0,5.79,4.4c17.65,1.59,35.45.09,53.11-.74l-1.6-11.79c-23.11,9.58-50.21,11.52-75,12.3v12c9-.63,18-1,27-1q6.76,0,13.53.18c2.45,0.07,8.34-.8,9.95,1l1.21-9.42c-9.65,4.26-20.43,4.89-30.82,5.42-10.91.56-21.83,0.65-32.74,0.36v12a328.57,328.57,0,0,1,33.45-1.38c7.75,0,7.7-11.68,0-12l-17-.71,1.6,11.79c7.15-1.39,15-.36,22.23.25,6.86,0.57,15,.58,21.17,4l-2.15-8.21c-0.7,1.57-11.05,1.29-12.82,1.35a140.63,140.63,0,0,1-14.17-.34c-4.74-.33-9.46-0.85-14.17-1.47-2.61-.34-5.22-0.72-7.82-1.11l-3.75-.56q-2.95-.95,1.14,2.07L322,487.67c5.3-2.09,11.44-1.68,17.05-1.85q9.26-.27,18.53-0.11c6.15,0.11,12.29.34,18.43,0.74,3.1,0.2,6.21.43,9.29,0.84,1.31,0.17,2.62.39,3.93,0.64q1.37,0.25,2.73.57,1.86,0.61,0-.48l2.15-8.21c-5.51,2.6-13.93,1.12-19.73.27a98.52,98.52,0,0,1-20.22-5.34l4.19,7.38c-0.59,2.33-1.67,1.54.77,1.81a29.19,29.19,0,0,0,4.53-.36c2.42-.16,4.85-0.25,7.27-0.33,5.77-.17,11.54-0.23,17.31-0.32q17.41-.26,34.82-0.38v-12c-12.31.22-24.7,0.42-36.86-1.78l1.43,11,1.69-.89c6.83-3.61.77-14-6.06-10.36l-1.69.89c-4.34,2.29-3.67,10,1.43,11,13.27,2.39,26.62,2.45,40.05,2.21,7.71-.14,7.74-12.05,0-12q-21.89.16-43.78,0.53c-6.72.12-13.46,0.19-20.16,0.86-5.14.52-10.85,1.13-12.34,7-0.85,3.35,1.1,6.22,4.19,7.38a106.6,106.6,0,0,0,25.31,6c8.08,0.93,16.37,1.38,23.89-2.16,3.15-1.48,3.37-5.47,2.15-8.21-2.62-5.89-11.5-6-17-6.67-7.57-.93-15.22-1.24-22.84-1.47q-11.7-.35-23.4,0c-6.59.19-14-.18-20.24,2.28-2.87,1.13-5.33,4-4.19,7.38,2.24,6.57,8.81,6.57,14.75,7.42,7.12,1,14.25,2,21.42,2.46a126.68,126.68,0,0,0,21.69-.15c5.62-.57,13-0.87,15.65-6.81,1.31-2.92.92-6.49-2.15-8.21-7.65-4.29-16.84-4.72-25.4-5.5-9-.82-18.3-1.72-27.25,0-6.88,1.34-4.91,11.51,1.6,11.79l17,0.71v-12a328.57,328.57,0,0,0-33.45,1.38c-7.52.81-7.89,11.79,0,12,12.2,0.33,24.41.18,36.59-.57,11.43-.7,22.48-2.19,33-6.84,3.77-1.66,3.5-6.84,1.21-9.42-5.72-6.46-18.43-4.6-26.16-4.69-11-.12-21.9.25-32.83,1-7.62.53-7.79,12.24,0,12a354.88,354.88,0,0,0,40.56-3.63c12.75-1.88,25.62-4.15,37.58-9.1,5.71-2.37,5.8-12.13-1.6-11.79-17.66.83-35.46,2.33-53.11,0.74l5.79,4.4L359,457l-2.76,6.78a60,60,0,0,1,19.45-6.63c2.93-.45,16.54-2.56,17.11,2.56l3-5.18c-9.33,5.39-37.32.1-30.51-15.16,2.68-6,12.22-11.08,18.77-10.33,6.74,0.77,4.92,11.48,2.83,15.61a15.48,15.48,0,0,1-14.73,8.76c-5.33-.3-13-4-13.85-9.94-1-7.08,9.19-12.19,14.59-13.84a39.74,39.74,0,0,1,21.31-.26,28.94,28.94,0,0,1,5.58,1.8c2.24,1.1,2.66,1,1.27,2.63-2.48,2.87-8.49,4.71-12,5.84-7.32,2.34-19,4.72-25.81-.06l3,5.18V443.6l-1.76,4.24c2.31-3,8.47-4.56,11.95-5.8A98.93,98.93,0,0,1,388,438.68a94.38,94.38,0,0,1,26-1.9c7.71,0.45,7.69-11.55,0-12h0Z"/><path class="cls-1" d="M380.54,435.56a90.55,90.55,0,0,0,9,25c4.07,7.61,9.23,14.84,8.62,23.88-0.52,7.71,11.48,7.68,12,0,0.63-9.31-3.34-17.55-7.77-25.46a89.73,89.73,0,0,1-10.28-26.6c-1.51-7.57-13.08-4.36-11.57,3.19h0Z"/><path class="cls-1" d="M404.29,435.23c5.18-1.45,10.54-3.53,15.88-4.23,5.11-.67,9.14,2.76,13.31,5.27,1.92,1.16,4.11,3,6.23,3.76l1.56,0.94-0.12-2.5c-0.08,0-2.34,1.72-2.53,1.84a69.12,69.12,0,0,1-7.2,4c-2,1-5,2.93-7.17,3.1l4.24,1.76q1.36,2.92.81,0.67a28.65,28.65,0,0,1-.41-3.09,23,23,0,0,1,0-4.82c0.32-2.49,1.28-5.65,3.71-6.93,1.09-.58,3.11-0.85,4,0.33,1.41,1.88-2,4.59-3.21,5.39-4.78,3.15-10.92,3.91-16.51,4a63.72,63.72,0,0,1-8.63-.47c-1.78-.22-3.55-0.55-5.3-0.92l-1.7-.39q-3.11-1.34-.57,1l-2.76,6.78c9.3-4.14,23.76-6.61,33.39-1.93,1.54,0.75,2,1,0,2.43-1.78,1.19-4.37,1.33-6.43,1.44a30.88,30.88,0,0,1-8.42-.66,33.63,33.63,0,0,1-4-1.14l-1.69-.64q-2.61-1.77-.75.52l-0.6,4.62c0.67-1.53,6.13-1.91,7.42-2.15q4.77-.87,9.61-1.29,4.22-.37,8.47-0.46c1.59,0,7.62-.81,9,0.1l-2.76-3.59,0.1,0.71L447,441a131,131,0,0,1-47.82-2.6l2.65,10q-2.3.88,1,.32l1.89-.1q2.83-.13,5.67-0.15,5.67,0,11.34.37a136.86,136.86,0,0,1,23.58,3.81c1.27,0.32,7.24,1.29,7.29,3s-6.63,3.65-7.65,3.92c-7.39,2-15.57,1.89-23.09.75v11.57c8.65-2.09,18.64-1,27.49-.9,9,0.15,18.22.16,26.74,3.42l-1.43-11c-3.82,2.07-8.65,1.86-12.88,2.08q-7.65.4-15.32,0.32a250.58,250.58,0,0,1-30.55-2.25l3,11.18c2.67-1.79,6.18-1.61,9.31-1.84,3.44-.25,6.88-0.41,10.32-0.58q11.28-.55,22.56-1,10.79-.44,21.59-0.8l11.78-.37c2.62-.08,7-1.07,9.42.14V460a25.65,25.65,0,0,1-8.82,1.88c-7.69.37-7.73,12.38,0,12a42.49,42.49,0,0,0,14.88-3.52c4.1-1.73,3.75-8.51,0-10.36-7-3.45-15.8-1.78-23.32-1.54q-12.76.41-25.51,0.93t-25.41,1.15c-7.26.37-16.56-.29-22.84,3.92-5.29,3.54-2.75,10.41,3,11.18a249.72,249.72,0,0,0,34.38,2.26c9.76-.05,21.59.73,30.42-4.05,4.92-2.66,3.09-9.24-1.43-11-9.45-3.6-19.94-3.68-29.93-3.84s-20.88-1-30.68,1.33c-5.44,1.32-6,10.66,0,11.57,11.37,1.73,24,2.12,34.79-2.65,9-4,15.86-14.67,7.13-22.86-3.93-3.69-9.78-4.8-14.85-6a160.78,160.78,0,0,0-17.43-2.95,146.41,146.41,0,0,0-18.87-1c-5.56.07-11.65-.44-16.05,3.43-3.38,3-1.57,9,2.65,10a140.22,140.22,0,0,0,51,3c4.21-.53,6.4-3.39,5.79-7.6-1.2-8.21-15.15-6.18-20.7-5.94-8.21.35-17.25,0.94-25.05,3.67-7.06,2.46-12.87,10.46-4.8,16.05,5.94,4.12,14.73,5.63,21.84,5.44,6.82-.18,14.6-1.88,18.55-8s2.37-14.43-4.2-17.93c-13.84-7.36-32.88-4.46-46.5,1.6-2.5,1.11-3.26,4.37-2.76,6.78,1.65,7.9,12.74,8.41,19.15,9.13,8.19,0.92,17,.72,24.82-2.14,7.3-2.67,14.46-7.73,15.54-16a13.64,13.64,0,0,0-10.82-15.19c-7.26-1.64-14.23,2.32-17.87,8.55s-4.74,17.09-1.59,23.83c3.91,8.37,15.23,1.41,20.75-1.44,6.26-3.23,16.4-8.67,13.44-17.4-1.31-3.86-5.07-5.72-8.34-7.69-4.17-2.51-8.28-5.34-12.65-7.49-10-4.92-20.47-.38-30.46,2.42-7.42,2.08-4.27,13.66,3.19,11.57h0Z"/><path class="cls-1" d="M530.71,437.35c-19.91.28-39.87,0.18-59.75,1.17-20.09,1-39.71,4.43-59.33,8.77-7.54,1.67-4.35,13.24,3.19,11.57,19.23-4.25,38.37-7.55,58.08-8.43,19.25-.86,38.55-0.81,57.81-1.08,7.72-.11,7.74-12.11,0-12h0Z"/><path class="cls-1" d="M523,439.22c1.36-8.56-7.07-10.3-13.8-11.29-8.57-1.27-17.32-1.14-26-1s-17.57.48-26.35,0.76c-7.06.22-14.78,1.09-15.1,9.89-0.28,7.72,11.72,7.71,12,0l-1.55,2.27,0.93,0c0.74,0.4,3.67-.12,4.66-0.15l7.45-.23c5.66-.17,11.33-0.35,17-0.48s11.08-.2,16.62,0c2.34,0.1,4.71.2,7,.48,1.37,0.17,6.21.39,7.18,1.58l-1.54-5.84-0.12.78c-1.2,7.55,10.37,10.81,11.57,3.19h0Z"/><path class="cls-1" d="M530.64,415.52c-27.48,9.44-56.86-3-84.91,3.49-7.52,1.75-4.34,13.32,3.19,11.57,28.07-6.54,57.07,6.07,84.91-3.49,7.26-2.49,4.14-14.09-3.19-11.57h0Z"/><path class="cls-1" d="M535.75,442.37a484.35,484.35,0,0,0-89.67,8.86c-7.57,1.46-4.37,13,3.19,11.57a466.78,466.78,0,0,1,86.48-8.43c7.72,0,7.74-12,0-12h0Z"/><path class="cls-1" d="M515.25,450.16c-15.88.86-31.81,0.19-47.68,1.24a157.3,157.3,0,0,0-23.18,3.08c-6,1.31-14,2.53-17.14,8.57-3.53,6.85,6.82,12.93,10.36,6.06,0.78-1.52,5.78-2.06,7.32-2.44q4.84-1.19,9.78-1.94A174.48,174.48,0,0,1,474.88,463c13.46-.5,26.93-0.15,40.38-0.87,7.68-.42,7.73-12.42,0-12h0Z"/><path class="cls-1" d="M511.75,459.84a488.56,488.56,0,0,0-55.5,2c-7.62.71-7.7,12.72,0,12a488.56,488.56,0,0,1,55.5-2c7.73,0.16,7.72-11.84,0-12h0Z"/><path class="cls-1" d="M503.15,468.84c-2.29,2.41-6.67,2.53-9.79,3-4.24.64-8.52,1.06-12.79,1.39-8.68.69-17.38,0.94-26.07,1.19-7.71.22-7.74,12.22,0,12,10.63-.31,21.27-0.61,31.84-1.71,8.3-.86,19.15-0.91,25.3-7.39,5.32-5.6-3.15-14.1-8.49-8.49h0Z"/><path class="cls-1" d="M514.42,471.42c-22.58,4-45.73.35-68.22,5.47-7.53,1.71-4.34,13.29,3.19,11.57,22.38-5.1,45.65-1.51,68.22-5.47,7.59-1.33,4.37-12.9-3.19-11.57h0Z"/><path class="cls-1" d="M508.5,462c-19-.87-38.63-1.44-56.66,5.72-7.09,2.82-4,14.43,3.19,11.57,17.11-6.8,35.4-6.12,53.47-5.29,7.72,0.35,7.7-11.65,0-12h0Z"/><path class="cls-1" d="M529,468.8c-28.61-1.32-58.2-2.33-85.36,8.3-7.11,2.78-4,14.39,3.19,11.57,26.24-10.26,54.53-9.14,82.17-7.87,7.72,0.36,7.7-11.64,0-12h0Z"/><path class="cls-1" d="M536.78,475.79c-7.86,5.86-17.77,6.56-27.24,7.19-10.11.66-20.24,0.82-30.37,1q-31.21.48-62.42,0.62c-7.72,0-7.74,12,0,12q33.14-.15,66.27-0.68c10.42-.17,20.85-0.39,31.24-1.26,10-.84,20.36-2.35,28.58-8.48,6.12-4.56.15-15-6.06-10.36h0Z"/><path class="cls-1" d="M454.82,480c-2.26,2.73-7.54,2.54-10.79,2.79-3.76.28-7.53,0.35-11.3,0.31-8.22-.1-16.41-0.82-24.61-1.29-7.78-.45-15.83-1.05-23.57.16a33.88,33.88,0,0,0-9.46,3.05c-4.21,2-7.37,2.33-12.08,2.08-7.72-.42-7.69,11.58,0,12,4.41,0.24,8.81.25,13-1.31s7.41-3.73,11.83-4.22c8.53-.95,17.43,0,26,0.6,8.8,0.57,17.63,1.21,26.46.84,7.43-.31,17.85-0.25,23-6.52,4.88-5.91-3.56-14.45-8.49-8.49h0Z"/><path class="cls-1" d="M436.28,468.69a168.43,168.43,0,0,0-62.89,19.87c-6.76,3.73-.72,14.1,6.06,10.36a153.23,153.23,0,0,1,56.84-18.23c7.59-.85,7.67-12.86,0-12h0Z"/><path class="cls-1" d="M438,473.39c-25.57,10.44-53.21,7.64-80,4.74-7.67-.83-7.61,11.18,0,12,27.75,3,56.67,5.65,83.17-5.17,7.05-2.88,4-14.49-3.19-11.57h0Z"/><path class="cls-1" d="M450.6,418.89c-8.37,5.48-18.67,7-28.37,8.59-10.2,1.71-20.45,3.12-30.49,5.66-2.93.74-5.33,4.39-4.19,7.38,3.16,8.34,13.23,7.69,20.78,8.16a161.94,161.94,0,0,0,30.25-1.05c5.11-.64,9.15-8.4,3-11.18-10.09-4.59-21.55-5.2-32.48-5.94a274.51,274.51,0,0,0-35.24,0c-4.16.26-8,5-5.18,9,4.64,6.61,16.33,6.08,23.63,6.14a94.15,94.15,0,0,0,28-4.16c6.25-1.9,5.4-12.16-1.6-11.79q-18.37,1-36.6,3.43c-7.39,1-7.94,12.36,0,12a142,142,0,0,0,30.85-4.8c5.46-1.48,6-10.39,0-11.57l-45.14-8.91v11.57a88.26,88.26,0,0,1,20.57-.48c1.31,0.12,8.55,2.09,9.39,1.46q0.67-6.72-1.8-4.19l-2.05,1.67-4.11,3.35c-2.45,2-2.2,6.46,0,8.49,6.66,6.14,17.58,4.64,26,4.83q7.91,0.18,15.82.18,4,0,7.91,0l4-.06q3.67,0.6.56-1.28l5.18-9a166,166,0,0,1-38.74-1.65v11.57a136.38,136.38,0,0,1,32-4.18l-3-11.18c-6.2,2.75-13,3.86-19.56,5.45-5.46,1.32-12,2.31-13.9,8.38-1,3.2,1.19,6.4,4.19,7.38,7,2.28,14.16,3.57,21.3,5.14a101.46,101.46,0,0,1,11,2.93c0.85,0.29,4.23,2.11,4.63,1.88l0.72-2.51a18.72,18.72,0,0,1-2.47,1.68c-5.83,3.5-12.88,4.77-19.47,6a192.66,192.66,0,0,1-24.4,2.86v12c9.26-.6,18.73-1.33,28-0.1,2.21,0.29,5.34,1.69,7.5,1.52l1.79,0.52q2.11-5.34-.63-2.82c-1.89.27-4,2-6,2.42a18.52,18.52,0,0,1-6.43.19l1.43,11c3.12-2,7.36-1.06,10.91-.68,4.47,0.48,8.92,1.22,13.32,2.13s8.59,2,12.81,3.24c2.87,0.86,7.23,1.54,9,4.24l2.15-8.21c-3.61,2.49-9.37,0-13.26-.87q-7.79-1.8-15.5-3.93c-10.28-2.85-20.41-6.19-30.41-9.91l-1.6,11.79a28.05,28.05,0,0,1,9.56,2.14L422,486.46l-0.53.7L425,484.4c-2.73.88-8.08-.44-10.92-0.72-4.27-.42-8.52-0.93-12.76-1.58-8.27-1.26-16.46-2.92-24.58-4.9l2.65,10,0.95-.74c7.3-2.42,4.17-14-3.19-11.57a14.05,14.05,0,0,0-6.24,3.83c-3,3.18-1.87,8.93,2.65,10a294.75,294.75,0,0,0,31.91,5.92q7.65,1,15.35,1.57c4.93,0.36,8.34.37,11.5-3.74,1.81-2.36.57-7-2.15-8.21a44.83,44.83,0,0,0-15.62-3.78c-7.17-.4-7.56,9.56-1.6,11.79a369.86,369.86,0,0,0,35.86,11.38c9.42,2.46,23.59,8.31,32.56,2.13,2.56-1.76,4-5.33,2.15-8.21-5.91-9-19.2-11-29-13A170,170,0,0,0,437.11,482c-5.59-.57-11.13-0.78-16,2.41-3.85,2.51-4.05,10.14,1.43,11,7.54,1.14,15.09.27,21.69-3.82,5.41-3.36,9.26-10.12,4-15.58-4.84-5-14-5.56-20.51-6.19-8.69-.85-17.45-0.27-26.13.3-7.66.5-7.74,12.44,0,12a212,212,0,0,0,32.08-4.18c8.1-1.72,20.4-4.62,24.73-12.54,5.31-9.73-7.17-15.08-14.27-17.3-10-3.14-20.59-4.25-30.61-7.53l4.19,7.38c-0.64,2.06-.34,1.24,1.27,1.1a31.94,31.94,0,0,0,4.25-1.1c2.56-.62,5.14-1.17,7.71-1.78a83.42,83.42,0,0,0,14.72-4.88c5.62-2.49,2.57-11.25-3-11.18a150.64,150.64,0,0,0-35.22,4.61c-5.43,1.38-6,10.58,0,11.57a179.32,179.32,0,0,0,41.93,2.08c4.48-.32,7.55-4.87,5.18-9-2-3.43-5.14-4.55-8.94-4.7-5.57-.22-11.23.16-16.81,0.14q-7.91,0-15.82-.25-4-.11-7.91-0.26c-1.81-.07-5.16.38-6.63-1v8.49c3.64-3,9.29-6.06,10.17-11.06s-2.93-8.56-7.51-9.84c-11.6-3.22-24.56-2.68-36.33-1-5.87.85-5.58,10.47,0,11.57l45.14,8.91V428.75a126.71,126.71,0,0,1-27.66,4.37v12q18.23-2.44,36.6-3.43l-1.6-11.79a82.2,82.2,0,0,1-20.34,3.64,86.71,86.71,0,0,1-9.82-.12c-1.84-.13-3.68-0.31-5.5-0.58s-4.25-2-2.41.59l-5.18,9a275.42,275.42,0,0,1,31.43-.19c9.72,0.51,21.22.43,30.22,4.53l3-11.18A164.77,164.77,0,0,1,417.13,437q-4.89,0-9.77-.36c-1.95-.13-3.9-0.29-5.85-0.51l-1.94-.22q-2.82-1-.44,1.44l-4.19,7.38c10.65-2.69,21.53-4.1,32.35-6,10.16-1.76,20.62-3.74,29.38-9.48,6.43-4.22.43-14.61-6.06-10.36h0Z"/><path class="cls-1" d="M185.2,423.2a10.36,10.36,0,0,0-5.25-12.06,16.38,16.38,0,0,0-12.59-.65,6.14,6.14,0,0,0-4.19,7.38c0.83,3,4.29,5.22,7.38,4.19a12.11,12.11,0,0,1,1.3-.39q1.12-.23.42-0.1a12.11,12.11,0,0,1,1.36,0,3.18,3.18,0,1,1,.43,0q-0.58,0,.41.16a0.72,0.72,0,0,1-.52-0.36,2.75,2.75,0,0,1-.32-1.39,6,6,0,1,0,11.57,3.19h0Z"/><path class="cls-1" d="M173.25,415.14l0.29-4.25a6,6,0,0,0-6-6,6.14,6.14,0,0,0-6,6l-0.29,4.25a6,6,0,0,0,6,6,6.14,6.14,0,0,0,6-6h0Z"/><path class="cls-1" d="M180.28,418.17a31,31,0,0,0,3.46-3.3,6.32,6.32,0,0,0,1.76-4.24,6.11,6.11,0,0,0-1.76-4.24,6,6,0,0,0-8.49,0,31,31,0,0,1-3.46,3.3,6,6,0,0,0-1.76,4.24,6.11,6.11,0,0,0,1.76,4.24,6,6,0,0,0,4.24,1.76l1.6-.21a6,6,0,0,0,2.65-1.54h0Z"/><path class="cls-1" d="M211.5,509.14c7.72,0,7.73-12,0-12s-7.73,12,0,12h0Z"/><path class="cls-1" d="M74.2,419.69a14.05,14.05,0,0,1-9.28,2.85l1.6,11.79L79,430c6.66-2.32,5.05-11-1.6-11.79-7.36-.86-14.81-0.6-22-2.55l-1.6,11.79,0.65,0c7.55,1.38,10.79-10.19,3.19-11.57a20.06,20.06,0,0,0-3.84-.41c-6.72.06-8.21,10-1.6,11.79,8.25,2.23,16.78,2,25.2,3l-1.6-11.79-12.44,4.32C57,424.94,58,434.3,64.92,434.53A25,25,0,0,0,80.26,430c6.28-4.4.29-14.81-6.06-10.36h0Z"/><path class="cls-1" d="M83,418.6c-8.1-.51-15.86-3.2-24-3.16-7.72,0-7.74,12,0,12,8.12,0,15.94,2.65,24,3.16,7.71,0.48,7.68-11.52,0-12h0Z"/><path class="cls-1" d="M72.25,431.89c7.72,0,7.73-12,0-12s-7.73,12,0,12h0Z"/><path class="cls-1" d="M112.66,417.91c10.84,8.58,19.24,20.59,28.76,30.58q15.07,15.8,31.37,30.35c5.74,5.14,14.25-3.32,8.49-8.49Q165,455.8,149.9,440c-9.52-10-17.93-22-28.76-30.58-6-4.74-14.54,3.69-8.49,8.49h0Z"/><path d="M47,437.14c7.72,0,7.73-12,0-12s-7.73,12,0,12h0Z"/><path d="M41.75,457.64c7.72,0,7.73-12,0-12s-7.73,12,0,12h0Z"/><path d="M43,448.89c7.72,0,7.73-12,0-12s-7.73,12,0,12h0Z"/><path d="M45.75,443.64c7.72,0,7.73-12,0-12s-7.73,12,0,12h0Z"/><path d="M52.25,433.14c7.72,0,7.73-12,0-12s-7.73,12,0,12h0Z"/><path d="M52.25,433.14c7.72,0,7.73-12,0-12s-7.73,12,0,12h0Z"/><path d="M57.5,418.39H57.25A6.19,6.19,0,0,0,53,420.15a6,6,0,0,0,0,8.49,6.23,6.23,0,0,0,4.24,1.76H57.5a6.19,6.19,0,0,0,4.24-1.76,6,6,0,0,0,0-8.49,6.23,6.23,0,0,0-4.24-1.76h0Z"/><path d="M517.13,472.64c7.72,0,7.73-12,0-12s-7.73,12,0,12h0Z"/><path d="M513.22,453.42l-0.19.06a6.37,6.37,0,0,0-3.59,2.76,6,6,0,0,0,2.15,8.21,6,6,0,0,0,4.62.6l0.19-.06a6.37,6.37,0,0,0,3.59-2.76,6,6,0,0,0-2.15-8.21,6,6,0,0,0-4.62-.6h0Z"/><path d="M516.44,480.83c7.72,0,7.73-12,0-12s-7.73,12,0,12h0Z"/></g></mask><mask id="mask-2" x="148.38" y="-8915.18" width="52.5" height="32766" maskUnits="userSpaceOnUse"/></defs><title>OptimumsLogoVector</title><path class="cls-2" d="M390.05,333.16c6.17-.27,12.42,0,18.6,0L441,333.33c2.63,0,5.26,0,8,.05a20.2,20.2,0,0,1,3.72,0c1.56,0.28,2.83,1.88.57,2.61-1.8.59-4.51,0.31-6.45,0.4-4.79.32-9.65,0.54-14.44,0.75-9.65.42-19.25,0.67-28.9,1.09l-6.4.28a1.86,1.86,0,0,0-1.29.63,2,2,0,0,0-.51,1.4,1.87,1.87,0,0,0,1.91,1.86c9.94-.26,19.83-0.58,29.77-0.9,5-.16,9.94-0.32,14.86-0.42,2.57-.06,5.13-0.4,7.71-0.34a24,24,0,0,1,4.08.45,3.92,3.92,0,0,1,2,.71c1,1.67-2.65,2.12-3.46,2.1a62.12,62.12,0,0,0-6.5.57l-10.84.65c-12.45.54-24.82,1.6-37.27,2.15a1.95,1.95,0,0,0,.17,3.88c10.17-.27,20.29-0.49,30.46-0.82,5.08-.17,10.17-0.27,15.25-0.5,2.51-.11,5.08-0.17,7.6-0.28a11.76,11.76,0,0,1,3.21.09c1.85,0.49,2,1.69.34,2.56s-4.15.64-6,.78c-5.47.41-11,.71-16.43,1.06-11,.65-21.92,1.19-32.88,1.72l-1.31.06a1.86,1.86,0,0,0-1.29.63,2,2,0,0,0-.45,1.39,1.92,1.92,0,0,0,2,1.86l52.14-2.28c2.11-.09,7.09,0,3.83,2.58a1.21,1.21,0,0,1-.39.19l-62.06,5.69a22.44,22.44,0,0,1-14.37-4.18,15.38,15.38,0,0,1-5.38-6.52l-34.85,1.18c-31.82,1-64.36,8-96,12.21-5.18.68-10.52,1.38-15.46-.18s-9.42-6-9.24-11.21c0.2-4.64,4-8.53,8.42-10.21s9.2-1.55,13.84-1.41c10.37,0.29,133.17,4.53,133-.09,1.93-6.78,9.43-12,18.51-12.37h0Z" transform="translate(-36.25 -302.29)"/><path class="cls-3" d="M430.58,395.05v-87s2.67-9,10.17-4.5,72.33,43.17,72.33,43.17,3.67,5.67,0,8.83-74.17,44.17-74.17,44.17S431.41,402.22,430.58,395.05Z" transform="translate(-36.25 -302.29)"/><path class="cls-4" d="M526.58,347.88l59.83-33s11.5-2.67,8.17,7.5-30.33,51.5-30.33,51.5-5,3.33-8.67.83-29-18-29-18S522.44,350.17,526.58,347.88Z" transform="translate(-36.25 -302.29)"/><g class="cls-5"><text class="cls-6" transform="translate(0 185.34) scale(1.02 1)">optimums</text></g><g class="cls-7"><rect class="cls-8" x="148.38" y="81.22" width="52.5" height="33.25"/></g><polygon class="cls-3" points="160.25 111.97 181.63 111.97 181.63 90.72 160.25 111.97"/></svg>